<svg id="Layer_1" data-name="Layer 1" xmlns="http://www.w3.org/2000/svg" viewBox="0 0 50 50"><title>Artboard 6</title><path d="M36.55,40.75a2.26,2.26,0,0,1-2,0c-.16-.26-.33-.9-.62-1,.09.12.07.28.11.41-.74-.54-.64-1.68-.7-2.5a39.55,39.55,0,0,1-.11-4.87A12.66,12.66,0,0,0,33.33,30c-.24-.55-.25-1.36-1-1.23a9.48,9.48,0,0,0-1.75.72c-.88.34-.91,2.89-.91,3.74A9.7,9.7,0,0,0,30,35.47c.26,1,1.9,1.5,1.9,2.68-.19.55-1.58.36-2.09.3-.86-.12-1.07-.24-1.25-1.07-.34-1.57-1.12.08-1.51.87a2.77,2.77,0,0,1-1.57,1.51c-.27.08-1.23.34-.93-.28l.27-.48c.3-.55-.33-.12-.33-.64,0-.37.58-.58.73-.92A8.65,8.65,0,0,1,26,36.17c.31-.53-.42-1-.76-1.28A24,24,0,0,1,23.39,33c-.71-.79-1.67-1.39-2.31-2.22-.82-1.05.31-2.31,1-3.09-2.47-2.07-6.5-3.2-8.81-.31a47.78,47.78,0,0,1-2.85,3.84c-.83.83-2,1.69-2.31,2.89s2.49,3.66,0,3.88c-.51,0-1.07.14-1.44-.23s-.43-2.25-.48-2.85a4.49,4.49,0,0,1,.63-2.47c.45-.9.47-2.15,1.2-2.88.92-.93.72-1.37.72-2.53,0-.77.3-1.52.3-2.29-1.77,0-3.65,1.64-5.44,1.51C4.31,24.74,6,24,7.18,23a14.89,14.89,0,0,0,3.56-4.31c.69-1.4.84-2.79,2-4,1.38-1.48,3.22-1.95,4.87-3a9.15,9.15,0,0,1,5.21-1.14c1.12,0,2.51-.25,3.51.3a8.32,8.32,0,0,1,1.89,1.66c.32,0,.57-.21.88-.21.76,0,2.22,2.94,2.69,3.57.28.38,2.33,3.48,2.68,3.07,1.09-1.29,1-3.05,1.21-4.59A2.83,2.83,0,0,1,37,12.36c0-.32-.61-1-.85-1.12-.95-.63-2.29-.42-3.37-.42-.59,0-4.34,1.09-3.27-.59s5-1.16,6.75-1.16c1.49,0,3.53,1.14,4.79,1.89,1,.62,1.74,1.57,2.85,2.12.51.38.87.92,1.39,1.29.28.21,1,.54,1,1s-1,1.78-1.12,1.57c.08.16.39,0,.55,0,0,1-2.45.73-3.15.73-1.27,0-2.19,1.66-2.88,2.58A15.1,15.1,0,0,1,38.09,24a8.52,8.52,0,0,1-1.24,1.31A5.28,5.28,0,0,0,36,26.88c-.14.28-.32.54-.46.82,0,.6.1,1.18.1,1.78A34,34,0,0,1,35,33.71a18.93,18.93,0,0,0-.3,2.69,5.23,5.23,0,0,0,.69,2.68c.39.67,1.1.91,1.49,1.49l-.29.18"/></svg>