<svg id="Layer_1" data-name="Layer 1" xmlns="http://www.w3.org/2000/svg" viewBox="0 0 50 50"><title>Artboard 5</title><path d="M23.34,37.63c-1.29-.93-.22-3.7.16-4.88A5,5,0,0,0,23.71,31c0-.15-.91-.38-1.05-.43-.42-.14-.94.67-1.35.92s-1.38.46-1.6,1a4.7,4.7,0,0,0-.53,1.25c-.11.61.62,1,.74,1.39a16.07,16.07,0,0,1-2.19.11c-.71,0-.85-.17-1.14-1-.12-.3-.2-1.6-.37-1.6-.41,0-1,.59-1.42.81a19.35,19.35,0,0,1-3.26,1.68A32.22,32.22,0,0,1,4.7,36.83c-.31,0-2.84.42-2.73-.12.05-.29,1.55-.24,1.86-.48-.19-.29-.59-.67-.56-1.06.39.14.67.62,1,.85.15,0,.9-.11.74-.42,0-.48-.75-.8-.65-1.38l.61.63c.38.38.28-.05.59-.33,0,.22-.12,1.25.29,1s.89-.37,1.1-.79a13,13,0,0,1,.55-1.39c.27,0,0,1.06,0,1.16.24-.08.24-.36.32-.58s.52-.07.73-.12a1.53,1.53,0,0,0,1-.9c.23-.5.24-.42.73-.42.24,0,.27-.08.44-.28s.87-.78,1-1.27a6.44,6.44,0,0,1-.09-1.07c0-.22.75-.1.87-.1.51,0,0-1.47.55-1.6.76-.18,1.19-.19,1.69-.91.38-.55-.16-.38-.16-.95a5,5,0,0,1,.06-1.21c.07-1,.36-.84,1.11-.84,0-1.16-.11-1.32.91-1.32H18c.16,0,.78-1,.4-1.11-.63-.25-.76-.33-.84-1.08a7.07,7.07,0,0,0-.18-1.6c-.1-.33-.55-1.09-.35-1.45s2-.05,2.38-.05c0-.4-.21-2.07.19-2.14.24-.17,1,.06,1.18.12a16.22,16.22,0,0,1,2.33,1.06c0-1.13.67-2.11.76-3.21.05-.64-.05-1.72.72-1,.42.39.79.84,1.19,1.26a7.82,7.82,0,0,0,1,.79c.43.31.5.23.85-.31s.69-1.32,1.24-1.56.82,1.05,1,1.51c.25.71,1.46-1.24,1.69-.16.13.61.59,1.68.36,2.3a.45.45,0,0,0,.52.6c.44-.37.87-.78,1.3-1.18.15-.16.43-.41.57-.17s.46.17.77.17v3a3.92,3.92,0,0,0,.45.46c.42.41.33.17.73-.12a1.46,1.46,0,0,1,.87-.34s.58.35.57.32c.23.68-.3,1.89,0,2.29a1.21,1.21,0,0,0,.92.61c.33-.06.95-.65,1.28-.36S40,22.51,40,23c0,.2.34.35.47.43s.77-.51,1-.52c0,.6-.12.93.45,1.1.24.06.64-.27.81,0a1.06,1.06,0,0,1,.17.56,4.66,4.66,0,0,0,.6.28c.18.07.64-.17.72,0,.24.43.46.45.9.59a10.09,10.09,0,0,1,2.17,1c.19.11.66.35.7.62.08.56-.86.44-1.09.42-.89-.06-1.77-.22-2.66-.22-1.92,0-4.31.05-5.87,1.53-.77.73-1.46,1.59-2.17,2.38-.23.25.17,1.35.24,1.63s.29.51.35.85c.12.62-.69.46-1.06.47-.57,0-1.07-.28-1.14.5a1.42,1.42,0,0,0,0,.71c.09.15.25.28.25.48,0,.45-1.93.33-2.16.25-.83-.29-.35-.71-.35-1.31.16-1.17-.09-2.57.46-3.63a15,15,0,0,0-2.36.48,5.43,5.43,0,0,1-1.61,0,6.51,6.51,0,0,0-.88-.06,3.36,3.36,0,0,0-.12.76c-.22,1.3-1.31,2-1.84,3.09-.61,1.29.52,1.4.52,2.47-1.08,0-2.15,0-3.23-.12"/></svg>