<svg id="Layer_1" data-name="Layer 1" xmlns="http://www.w3.org/2000/svg" viewBox="0 0 50 50"><title>Artboard 9</title><path d="M17.06,41.66c0,.38.05,1-.35,1.23-.3-.24-.35-.62-.78-.67s-.79,0-.9-.39-.35-1.74-1-1.06c-.47.47-.44,1-1.15,1.19-.43.1-.85.46-.85-.25a2,2,0,0,1,.18-1.21c.32-.62.82-1.15,1.09-1.79A10.86,10.86,0,0,0,13.81,36c.19-1.67-.09-3.45.44-5a11,11,0,0,0,.86-1.71A5.07,5.07,0,0,1,15.6,27a5.46,5.46,0,0,0,.87-1.78,3.43,3.43,0,0,0-1.16-2.45c-.92-1.13-1.87-1-3.21-1.06-2.34-.13-5.33-1-6.28-3.42a7,7,0,0,1,.24-4.52c.65-1.67,2.58-2.28,3.61-3.64s-1.51-2-2.3-2.18a6.22,6.22,0,0,0-4.54.6c0-1,1.93-1.2,2.65-1.31a6.6,6.6,0,0,1,4.08.61,2.13,2.13,0,0,1,1.16,2.46c-.16,1.83-1.62,2.48-2.86,3.53a2.07,2.07,0,0,0,.64,3.65c1.76.58,3.8-.48,5.31-1.3,2.58-1.39,8.42-2.92,9.91.65a2.46,2.46,0,0,0,3.44,1.11c1.28-.87,2-2.35,3.2-3.33a12.3,12.3,0,0,1,8.49-2.85,29,29,0,0,1,6.33,1.62c.82.27,2.56.84,1.8,2a1.65,1.65,0,0,1-.81.76c-.28.15-.26-.36-.54.22-.16-.3-.48-.12-.64-.43-.45.3.52.68.63.72.61.25.8.53.56,1.17-.31.84-1.42.56-2.08.44-2.47-.46-4.93-.88-7.38-1.44-1.65-.38-3.48-.5-4.8.73-1.94,1.81-2.31,3.66-2.14,6.21.12,1.84,1.46,1.67,2.85,1.67,1.12,0,2.82.32,3.89-.13a4.69,4.69,0,0,1,2-.73c1.15,0,.68.85,1.23,1.42s1.27,2.43-.19,2.43c-.87,0-1.2.76-2,.76,0-1.19,1-1.65-.7-2.22a4.55,4.55,0,0,0-2.54-.31c-1.56.45-2.52.8-4.13.3-.83-.25-2.8-1.27-3.43-.22-.53.87.18,1.2.8,1.62A6,6,0,0,0,30,29.63c1.18.17,2.28-.69,3.16-1.37,0,1.27-.87,1.25-1.5,2.14.94.4,2.66-.1,2.66-1.32.4,0,.54.88.54,1.16,0,.76-.79,1.24-1.41,1.5a2.7,2.7,0,0,1-2.89-.42A10.16,10.16,0,0,0,27.13,30c.41,1,1.55,1.93,2.21,2.83a8.79,8.79,0,0,1,1.88,4.29c.11,1.32-.91,1.74-1.7,2.57-.37.2-1.17.24-1.36-.24-.31-.73-.83-.73-1.22-1.3a.78.78,0,0,1-.1-.54c0-.55.35-.06.44-.16a4.06,4.06,0,0,0,.25-3.24,5.56,5.56,0,0,0-2.31-2.92A2.83,2.83,0,0,1,24,29.79c-.15-.68.25-1.18.25-1.83-1.11,0-1.83.62-2.88-.13A14.11,14.11,0,0,0,20,26.74c-.68-.38-.84.58-1.13,1.11-1.11,2-2.71,4.09-3.14,6.41-.25,1.32-.55,3,.19,4.12.27.42.47,1,1,1.09.79.39,1.55.73,1.55,1.82-.56,0-1.5-.64-1.41.37"/></svg>