<svg id="Layer_1" data-name="Layer 1" xmlns="http://www.w3.org/2000/svg" viewBox="0 0 50 50"><title>Artboard 4</title><path d="M18.93,44.3c-.85,0-1.31.81-1.31-.51s.32-2.3.32-3.48c0-.13-.08-1.86-.47-1.41s-.6.34-1.15.05c-1.41-.76-.89-2.44-1.32-3.77a3.24,3.24,0,0,1-.33-1.82,2.71,2.71,0,0,0,.27-1V31c0-.3.83-1.39.78-1.44-.38-.38-1.82-.36-2.35-.45a5.59,5.59,0,0,0-.82-.12c-.18,0-.2,1.45-.28,1.75a3.81,3.81,0,0,1-.67,1.37c-.37.51-.31,1.53-.46,2.14-.42,1.79-.84,3.39.76,4.67.42.33,1.19.79,1.19,1.4s-1.33.7-1.65.62a9,9,0,0,1-2.29.4c-.67-.09-1.32-.07-1.6-.78a9.52,9.52,0,0,1-.42-2.81A20.7,20.7,0,0,0,6.8,34c-.25-1.11.43-1.91.61-3a4.29,4.29,0,0,0-.6-2.7c-.31.18-.55.9-.7,1.2-.4.81-.8,1.62-1.19,2.45A4.34,4.34,0,0,1,3.2,34.17c-.85.37-.38-.88-.31-1.2.41-1.8.57-3.68,1-5.46.37-1.61,1-3.16,1.32-4.78a15,15,0,0,0,.33-2,7.91,7.91,0,0,1,1.23-3.25c1.14-2,3.72-3.36,6-3.86,1.62-.36,2.75.23,4.22.65a21.24,21.24,0,0,0,4,.7,7,7,0,0,0-2.78-1.9c-.42-.18-2.39-.57-2.39-1a13.28,13.28,0,0,1,6,1.69c1.08.54,2,1.18,3.07,1.71.08,0,1.5.86,1.54.71.1-.51-.43-1.43.11-1.79.56-.18,1.24,1,1.58,1.31a1.52,1.52,0,0,0,1,.45c.51,0,.73-1,1-1s.23,1.57.62,1.57a5.55,5.55,0,0,0,2.49-.78c.64-.34,1.63-.4,2-1.08.91-1.68,1-.39,1.55.52.93-.93,1.17-.89,1.64.51.31.31,1.29.17,1.69.18.66,0,1.1.21,1.44-.4a51.53,51.53,0,0,0,2.38-5.37c.3-.74,1.66-5.15,2.53-5.15a6.27,6.27,0,0,1-.44,2c-.28,1.07-.51,2.15-.74,3.23s-.47,2.15-.71,3.22c-.14.61-.92,2.36-.57,2.86s1,.61,1.43.94a5.3,5.3,0,0,1,1.5,1.88c.17.34.92,2,.09,2-.26.06-.87-.37-1.12-.48-.67-.31-.52,1.83-1,2.29a6.07,6.07,0,0,1-2,.87,14.77,14.77,0,0,1-3.18.9,5,5,0,0,0-2.37.65,4.28,4.28,0,0,0-1.17.85c-.5.64-1,1.32-1.52,1.92a5.37,5.37,0,0,1-2.46,1.58c-1.06.36-1,.45-1.61,1.34a8.4,8.4,0,0,0-1.64,3.45c-.2,1.2-1,4,0,5,.44.45,1.21,1,1.21,1.66a.74.74,0,0,1-1,.76c-.35-.11-.28.13-.6.13-.48,0-.73-.64-1.21-.32-1.46,1-2.82-2.2-2.77-3.15.08-1.46,1.06-3.59.57-5-.07-.17-.35-1.62-.22-1.56-.25-.11-.91-.57-1.16-.45-1,.56-1.25,1.58-2,2.37s-.95.76-.79,1.6c.28,1.47.55,3,.83,4.42C21.77,40.75,24,44,23,44a3,3,0,0,0-.84,0c-.37.69-.74.51-1.3.25s-.52.24-.74.49c-.41.43-.8-.44-1.18-.44"/></svg>