<svg id="Layer_1" data-name="Layer 1" xmlns="http://www.w3.org/2000/svg" viewBox="0 0 50 50"><title>Artboard 7</title><path d="M21.91,34.89a4.68,4.68,0,0,0,.07-.84A5.57,5.57,0,0,1,19.23,34a1.42,1.42,0,0,1-1-1.41c0-.41.39-1.76-.29-1.76,0,.71-.06,1.42-.07,2.13a15.58,15.58,0,0,0,.28,1.92c0,.06.07.64-.09.64s-.27-.21-.47.09-.44-.54-.69,0-.63-.45-1,.06-.71-.24-1-.45c-.6-.44-.59-.88-.59-1.59A3,3,0,0,0,14,32c-.51-.88-.71-.49-1.38,0A17.5,17.5,0,0,1,9,34.22a8.06,8.06,0,0,1-3.66.55c-1.09-.07-3-.23-3-1.87.44.18.78.56,1.21.75A1.84,1.84,0,0,0,5,33.52,6.42,6.42,0,0,0,7.74,31c.45-.73.84-1.53,1.25-2.29,1.2-2.23,2.42-4.4,3.43-6.74A6.52,6.52,0,0,1,14,19.31a18.93,18.93,0,0,1,3.06-1.93,9.86,9.86,0,0,1,7.24-.73,15,15,0,0,1,2.82,1.11,4,4,0,0,0,1.28.47c.56.07.7-.43.87-.94s.33-.36.56-.62.09-.5.39-.56.32-.12.42-.39.54-.27.8-.51a3.12,3.12,0,0,1,1.34-.86c.43-.13.84-.49,1.26-.33.26.11.47-.33.72-.12s.32,0,.47-.06.41.14.64.14a8.36,8.36,0,0,1-.51,1.82A8.7,8.7,0,0,0,35,18.13a7,7,0,0,0,.24,2.05c.26.84.94.54,1.57.48,3.22-.31,6.51-.49,9.58-1.79-.08.44-.66.85-1,1.05.78.06,1.53-.62,2.31-.63,0,.47-1.12,1-1.4,1.11a10.12,10.12,0,0,1-2.4,1c-.65.18-1.32.29-2,.42A31.06,31.06,0,0,0,37.1,23c-.33.26-.06.49.28.73s.83.67,1.25,1a2.41,2.41,0,0,0,1.65.48c.27,0,1.41-.3,1.54-.06.28.53-.54,1.36-.54,1.91a10.66,10.66,0,0,1,.16,2.32c-.15.67-.49,1.8-1.12,2.07-.47.2-.13-1-.76-1.22.27.58-.45.63-.82.63-.82,0-1.45-.67-2.18-1a13.89,13.89,0,0,0-2.14-.38c-.51-.15-1-1-1.51-.92-.28.16-.74.26-.81.63s.16.75.18,1.13-.1.93-.1,1.4A2.78,2.78,0,0,0,32.51,33c.06.11.46,1.17,0,.73,0,.38-.35.17-.49.11-.35-.14-.38.36-.73.22-.13-.06-.66-.39-.78-.33-.2.59-.48.38-.9.18s-.64-.61-.52-1.25a2,2,0,0,0-.5-1.73c-.94-1.15-1.84-.4-2.82.27-.25.17-.87.44-1,.74s0,.58,0,.87A2.7,2.7,0,0,0,25,34.17c.25.43.85,1.19.33,1.6-.36.28-.32-.06-.66-.06-.18,0-.06.44-.31.44s-.42-.32-.7-.32c-.12,0-.15.2-.22.28s-.48-.06-.61-.13c-.31-.18-1-.57-.91-1.09"/></svg>