<svg id="Layer_1" data-name="Layer 1" xmlns="http://www.w3.org/2000/svg" viewBox="0 0 50 50"><title>Artboard 15</title><path d="M47.88,26.94c-.69-1.34-2.25-2.19-3.41-3.07C43,22.74,40.74,22.36,39,21.78a17.67,17.67,0,0,1-3.06-1.16,20.94,20.94,0,0,0-2.23-1.22c-3.27-1.3-6.52-2.83-10.13-2.63a28.61,28.61,0,0,0-4.34.42,33,33,0,0,1-4.24,1,24.45,24.45,0,0,0-4.24.83A9.13,9.13,0,0,1,6,19.35c-.4-.11-1.59-.38-1.4-1s.73-.84,1.2-1.28a6.89,6.89,0,0,1,2.63-1.54,8.75,8.75,0,0,0,2.46-.86.9.9,0,0,0-.34-1.58C8.18,13.08,2,13,1.84,16.45a4.2,4.2,0,0,0,1.72,4A40.06,40.06,0,0,0,6.93,23c.6.34,2.25.51,2.55,1.1-.44.5-.69,1.15-1.1,1.68-.65.84-3.77,1.54-3.77,2.74,0,.69-.26,2.44.8,2.44.57,0,.9.24,1.44.24a3.41,3.41,0,0,1-.77-2.53c.12-.55.76-.36,1.2-.36,0-.34-.61-.48-.3-.79.08-.19.61-.41.78-.53,0,.27-.09.53-.12.79.31-.21.59-.46.92-.65,0,.88-.07,2.9,1.18,2.9-.33-.48-.82-1.43-.4-2,.16.26,1.89,2,2.11,1.05A2.32,2.32,0,0,1,10.1,28c-.23-.5-.2-1.32.54-1.26.29,0,.69.08.81-.27a2.82,2.82,0,0,0,1.12,0c.31,0,1.7-.26,1.79-.57.17-.64,1.36,0,1.93,0,.79.05,1.58.09,2.37.08,0,1.33-.19,1.77,1.27,2.05a5.21,5.21,0,0,1,2.17,1c.64.49,1.37.94,2,1.49.29.26.47.32.29.68-.28.53-.56,1.06-.82,1.61-.35.71-.49,2.35-1.55,2.35a5.8,5.8,0,0,1-1.25,0c-1.13,0-2.56-.32-3.36.67h.91l-.52.64h.79a.84.84,0,0,0-.16.43,8.05,8.05,0,0,0,3.9-.62c.85-.51,1.45-.84,2.31-.19,0-.5-.3-.75-.65-1.06,1.08.26,2.21-2,2.63-2.71a10.71,10.71,0,0,1,1.63-2.06c.93-1,0-1.45-.93-2.25a8.31,8.31,0,0,0-1.88-1.47c-.4-.18-1.23-.42-1.45-.85.47-.33,1-.34,1.51-.75a5.33,5.33,0,0,1,2.38-1,9,9,0,0,1,3.23-.18c1.31.2,2.68.63,4,.75a30.17,30.17,0,0,1,4.65.71c2,.5,4.14.35,5.89,1.51.77.51,1.78,2,.46,2.73-1.49.82-3.73.64-5.38.78-1.24.12-4.25.16-4.61,1.76,3.1-2.07,6.42-.83,9.81-1.53C47.52,30.16,48.75,28.61,47.88,26.94ZM5.28,29a9.11,9.11,0,0,0,.64,1.84C5.06,30.84,5.28,29.52,5.28,29Zm4.33-3c.39-.58,1.24-.8,1.71-1.31.59,0,.6.38.92.78A7.26,7.26,0,0,1,9.61,26Zm17.25,3.82c0,.84-1.44,3.29-2.26,3.55,0-1.15,1.59-1.53,1.59-2.64,0-.3-.71-.74-.91-.94A5,5,0,0,1,24,28C24.54,28,26.86,29.08,26.86,29.79Z"/></svg>