<svg id="Layer_1" data-name="Layer 1" xmlns="http://www.w3.org/2000/svg" viewBox="0 0 50 50"><title>Artboard 10</title><path d="M27.4,34.06a1.94,1.94,0,0,1-1.64-.39c-.68-.46-.35-1.17-.64-1.87-.38-.91,0-1.37.09-2.28.05-.43-.08-2.14.4-2.31-.08-.38-.82,0-1,.12a4.77,4.77,0,0,1-1.53,1.17c-1,.33-1.72.12-1.79,1.49-.06,1.2-.13,2.39-1.5,2.29-.06,0-.81-.52-.77-.63.1-.31.57-.57.74-.87.6-1.07-.65-1.93.3-3,.31-.33,1.95-1.28,1.88-1.57A5,5,0,0,0,20,25c-2.12-.34-4.27,1.09-6.33,1.35S9,26.82,7.2,25.44a7,7,0,0,1-2-2.62c-.18-.42-.3-.86-.76-.91a2.31,2.31,0,0,1-1.54-.49,1.2,1.2,0,0,1,.39-1.93A2.05,2.05,0,0,0,4.05,19c.2-.25.63-.67.84-.17.2-.43.38-.1.66-.1.43,0,.71-.2,1.15,0,1.54.6,1,2.22-.26,2.69-1,.36.68,2.22,1.16,2.49a4.39,4.39,0,0,0,2.75.29c2-.23,3.81-1.2,5.66-1.62.54-.12.39-.75.81-.93a1.06,1.06,0,0,1,.68.05c.47.12,1.47-1.23,1.87-1.52.25-.14.38,0,.56-.32a3.74,3.74,0,0,1,.5-.63c.33-.36,1.06-.19,1.47-.42a2.16,2.16,0,0,0,.93-1.28c.11-.63.55-.12.82.06s.76-.25,1-.38c.44-.07.51,0,.62-.55s.4-.69.69-.11a2.9,2.9,0,0,0,1.31,0c.23,0,.5-.88.8-.56s.41.54,1,.56a1.39,1.39,0,0,0,.83-.1c.19-.12.57-.64.81-.55.62.24,1.42,1,2.05.3.43-.45,1,.54,1.53.67.36.09.68-.3.89.14a1.15,1.15,0,0,0,.57.58q1,.66,2.13,1.29c.33.2,1.79,1.22,1.47,0l.2.12.21-.77A3,3,0,0,1,40,19.28a3.48,3.48,0,0,0,.94,2.06c.34.35.71.64,1.06,1s.58.83.95,1.08c.54.37,1.06.3,1.53.82l.56.61c.17.2.19.51.43.75.74.74,1.79,1.21,1.92,2.42.1.94.22,2.3-.67,2.86-.27,0-.5-.74-.83-.78,0,.53-.09.15-.36.15,0,.15.43,1.18-.1.71a4.34,4.34,0,0,1-.62-.88,2.4,2.4,0,0,0-1.12-.75,10.13,10.13,0,0,1-2.38-1.47c-.95-.76-3.53-.57-3.91.86-.16.59.55,1.06.9,1.41s1.21.53,1.53,1a3.72,3.72,0,0,1,.36,1.56c0,.15.2.46,0,.58a1.06,1.06,0,0,1-1,0c-.59-.39-.44-1.3-1.23-1.41a6.2,6.2,0,0,1-1.82-.61c-.81-.4-1.25-.57-1.53-1.52s-.21-.77-1-.77a13.24,13.24,0,0,0-1.38,2.23c-.68,1.39.63,1.62,1.23,2.5a4.14,4.14,0,0,1-1.4.12c-.81,0-1-.45-1.4-1.2a2.41,2.41,0,0,1,0-1.38c.06-.57.12-1.14.14-1.71s.11-.79-.3-1a4.67,4.67,0,0,0-1.21-.41c-.43-.11-.87-.31-1.12.13-.45.81-1,1.57-1.43,2.36s.14,1.38.56,2c.3.48.65,1.28,0,1.42"/></svg>