<svg id="Layer_1" data-name="Layer 1" xmlns="http://www.w3.org/2000/svg" viewBox="0 0 50 50"><title>Artboard 16</title><path d="M16.7,45.42c0-.21.4-.42.54-.51.34-.22.27-1.36.29-1.76.07-1,.08-2.12.07-3.18a8.88,8.88,0,0,0,0-1.63c-.6-.69-.25-2.15-1.1-2.63a6.42,6.42,0,0,0-.56,3.6,35.3,35.3,0,0,1-.43,3.62c-.05.73.37,2-.65,2.1a2.67,2.67,0,0,1-2.63-.33,8.77,8.77,0,0,0,1.84-5.17c.11-1.72-.43-3.31-.43-5,0-.59.2-.86-.11-1.34A12,12,0,0,1,13,31.47c-.69-1.62.35-3.41-.53-5a45.42,45.42,0,0,0-3.19-4.6C8.12,20.23,7,18.61,5.79,17L4.71,15.5a23.2,23.2,0,0,1-1.58-3.58C2.06,9.75,2.62,6.28,4.55,4.83a6.34,6.34,0,0,1,3.92-1,3.86,3.86,0,0,1,2.17.77c.22.13,1.43.65,1.46.9.3-.45.21,0,.67.11s.75-.16,1,.17c.48.7.4.57.08,1.46-.15.43.17.86,0,1.24,0,1.53-2.78-1.59-3-1.82a3.9,3.9,0,0,0-5.28-.06c-1.66,1.66,0,4.89,1.07,6.41A39.92,39.92,0,0,0,9.3,16.2C11,18.13,13,21.74,15.62,22.1c1.78.39,3.65.53,5.44.79a14.53,14.53,0,0,1,7,3.7,21.24,21.24,0,0,0,1.87,1.54c.81.57,1.68.85,2.24,1.72a17.47,17.47,0,0,0,1.36,2.27,9.81,9.81,0,0,0,1.67,1.17,19,19,0,0,0,3,2.26c1.27.65,1.9-.21,3.11-.39A11.76,11.76,0,0,1,46.41,35a1.29,1.29,0,0,1,.37,2.37,10.24,10.24,0,0,1-4,1.67,6.9,6.9,0,0,1-4-.16,4.62,4.62,0,0,0-2.5-.38c-.44.14-.89.61-1.24.5.22-.24.67-.34.67-.73,0-.58-1.14-.42-1.44-.69-.62-.18-1.25-.34-1.87-.51-.15,0-1-.37-1,0s.3.55.43.82c.38.88.73,1.77,1.1,2.65.56,1.31,1.45,2,.74,3.48-.22.44-2.39.61-2.39,0,0-.41.58-.81.58-1.31a2.88,2.88,0,0,0-.41-1.37,4.72,4.72,0,0,0-1.26-1.66c-.16,1.15-.57,2.26-.65,3.42,0,.58.54,2,0,2.46a2.47,2.47,0,0,1-1.83.26l-.06-.22a2.29,2.29,0,0,1-.74,0c-.44-.07-.51-.18-.23-.67s.84-1,1-1.66c0-.83,0-1.66,0-2.49,0-1.07-.1-2.14-.1-3.21,0-.45.22-.92-.3-1.1a4.26,4.26,0,0,0-1.47-.06,14.41,14.41,0,0,1-5.07-.3c-1.46-.46-1,.32-.8,1.43a9.6,9.6,0,0,1,.13,3.07A17.53,17.53,0,0,0,19.69,44c0,.35.35,1.27-.07,1.48a4.92,4.92,0,0,1-1.26.62c-.25,0-1.66-.36-1.66-.71"/></svg>