<svg id="Layer_1" data-name="Layer 1" xmlns="http://www.w3.org/2000/svg" viewBox="0 0 50 50"><title>Artboard 8</title><path d="M20.19,40.07a.83.83,0,0,0-.11.75c-.26,0-.41-.32-.64-.32s-.57,0-.78-.15c-.46-.22-.35-.84-.78-1.1a1.92,1.92,0,0,1-1.65.79A9.67,9.67,0,0,1,17,37.6a7.41,7.41,0,0,1,.65-1.85c.44-.8,1.32-2.06,1.19-3s.58-1.52,1.19-2.26a12.5,12.5,0,0,0,1.56-2.4c.4-.86-.43-.64-.71-1.25-.73-1.59-1.65-2.76-3.64-2.58s-3.5.07-4.92-1.34-1.64-3.44-2.13-5.37S8.9,14.19,7,13.64a17.69,17.69,0,0,0-4.77-.38c0-1.22,5.68-.06,6.23.21a6.15,6.15,0,0,1,2.68,3c.63,1.3.93,2.87,2.54,3.25,2.31.53,5.16,0,7.47-.22a23.21,23.21,0,0,0,4.59-.93c1.37-.41,2.34-1.55,3.7-1.94,1.51-.43,2.61.73,4,1,1.68.31,1.77-2.28,2-3.4.31-1.37.68-3,1.87-3.91A2.76,2.76,0,0,1,39,9.8a6.13,6.13,0,0,1,.84.14c.58.09.06-.27.56-.27s.86.23,1.28.16a3.94,3.94,0,0,1,2.51-.65c1.31,0,3.22.67,3.55,2.12a1.43,1.43,0,0,1-.33,1.33c-.15.15-.82,1-1,.47-.17.26-1,1-1.25.48v.16l-.31-.16c0,.37-1.13.37-1.45.22-.53-.28-1,.21-.72.75s.11.53.14,1.11c.08,1.22.31,2.25,1.47,2.72a4.23,4.23,0,0,1,1.46,1.24c.82,1-.2,1.84-1.28,1.58-1.7-.4-2.62-2.28-4.39-2.69-2.21-.52-1.66,1.89-2.63,3.17-.47.62-1,.84-.9,1.58.07.41-.21,1.52.27,1.68,1.19.4,3.49-1,4.28.06-.79,0-1.31.48-2.05.62.46.78,2.41.46,2.41,1.59-2.67,0-5.88-2.9-8.19-.33.68.81,2.49,1,2.81,2.12H34.79C35,29.83,36,30.55,36,31.42c-1.67-.58-2.1-2.82-3.61-3.55-.46-.23-.9.91-1.39,1H29.15c-.62,0-1.51.33-1.4,1.11.3.82,1.26,1.24,1.52,2.08a3.25,3.25,0,0,1-.95,2.7c-.26.29-2.3,1.9-2.62,1,.34-.3.53-1.15-.18-.94,0-1,1.37-2.29.66-3.29-.21.29-.7,1.31-1.12,1.31,0-1.49,1.27-1.95.34-3.49-.94,1.12-2.28,1-3.4,1.69S20.32,34,20,35.36a12.75,12.75,0,0,0-.4,3c.26.5,1.91.46,1.73,1.53-.48,0-.66-.39-1.14.17"/></svg>