<svg id="Group_391" data-name="Group 391" xmlns="http://www.w3.org/2000/svg" xmlns:xlink="http://www.w3.org/1999/xlink" width="266.421" height="185.644" viewBox="0 0 266.421 185.644">
  <defs>
    <clipPath id="clip-path">
      <path id="Path_525" data-name="Path 525" d="M291.463,144.634l.09-31.651V113a.787.787,0,0,0,.458.635l-.09,31.651a.789.789,0,0,1-.458-.635Z" transform="translate(-291.463 -112.983)" fill="none"/>
    </clipPath>
    <clipPath id="clip-path-2">
      <path id="Path_535" data-name="Path 535" d="M634.382,221.739l-.09,31.651a.775.775,0,0,1-.451.635l.09-31.651A.778.778,0,0,0,634.382,221.739Z" transform="translate(-633.841 -221.739)" fill="none"/>
    </clipPath>
    <clipPath id="clip-path-3">
      <path id="Path_550" data-name="Path 550" d="M558.235,266.18l-.09,31.651a2.216,2.216,0,0,1-1.1.263,2.256,2.256,0,0,1-1.1-.263l.089-31.651a2.261,2.261,0,0,0,1.1.263A2.216,2.216,0,0,0,558.235,266.18Z" transform="translate(-555.951 -266.18)" fill="none"/>
    </clipPath>
  </defs>
  <g id="Group_390" data-name="Group 390" transform="translate(0)">
    <g id="Group_389" data-name="Group 389" style="isolation: isolate">
      <g id="Group_375" data-name="Group 375" transform="translate(3.746 2.173)">
        <path id="Path_523" data-name="Path 523" d="M352.478,71.018l-.09,31.651-56.1,32.6.09-31.651Z" transform="translate(-296.287 -71.018)" fill="#686e7d"/>
      </g>
      <g id="Group_378" data-name="Group 378" transform="translate(0 34.762)" style="isolation: isolate">
        <g id="Group_377" data-name="Group 377" clip-path="url(#clip-path)">
          <g id="Group_376" data-name="Group 376" style="isolation: isolate">
            <path id="Path_524" data-name="Path 524" d="M292.011,113.632l-.09,31.651a.789.789,0,0,1-.458-.635v-.014l.09-31.651V113a.787.787,0,0,0,.458.635" transform="translate(-291.463 -112.983)" fill="#464a54"/>
          </g>
        </g>
      </g>
      <g id="Group_379" data-name="Group 379" transform="translate(59.847 2.173)">
        <path id="Path_526" data-name="Path 526" d="M571.352,188.066l-.09,31.651L368.53,102.67l.09-31.651Z" transform="translate(-368.53 -71.018)" fill="#484d57"/>
      </g>
      <g id="Group_382" data-name="Group 382" transform="translate(265.88 119.218)" style="isolation: isolate">
        <g id="Group_381" data-name="Group 381" clip-path="url(#clip-path-2)">
          <g id="Group_380" data-name="Group 380" style="isolation: isolate">
            <path id="Path_527" data-name="Path 527" d="M634.512,221.739l-.09,31.651v.018l.089-31.651a.125.125,0,0,0,0-.018" transform="translate(-633.971 -221.739)" fill="#4e535e"/>
            <path id="Path_528" data-name="Path 528" d="M634.508,221.762l-.089,31.651a.547.547,0,0,1-.01.088l.089-31.651a.47.47,0,0,0,.01-.088" transform="translate(-633.968 -221.744)" fill="#515661"/>
            <path id="Path_529" data-name="Path 529" d="M634.491,221.875l-.089,31.651a.584.584,0,0,1-.025.087l.089-31.651a.5.5,0,0,0,.025-.087" transform="translate(-633.961 -221.769)" fill="#545964"/>
            <path id="Path_530" data-name="Path 530" d="M634.454,221.987l-.089,31.651a.7.7,0,0,1-.042.089l.09-31.651a.646.646,0,0,0,.041-.089" transform="translate(-633.949 -221.794)" fill="#565c68"/>
            <path id="Path_531" data-name="Path 531" d="M634.4,222.1l-.09,31.651a.773.773,0,0,1-.062.093l.089-31.651a.7.7,0,0,0,.063-.093" transform="translate(-633.931 -221.82)" fill="#595e6b"/>
            <path id="Path_532" data-name="Path 532" d="M634.3,222.221l-.089,31.651a.95.95,0,0,1-.1.1l.09-31.651a.927.927,0,0,0,.1-.1" transform="translate(-633.903 -221.847)" fill="#5c616e"/>
            <path id="Path_533" data-name="Path 533" d="M634.151,222.356l-.09,31.651a1.182,1.182,0,0,1-.193.144l.089-31.651a1.153,1.153,0,0,0,.194-.144" transform="translate(-633.847 -221.877)" fill="#5e6471"/>
            <path id="Path_534" data-name="Path 534" d="M633.951,222.541l-.089,31.651-.021.012.09-31.651.02-.012" transform="translate(-633.841 -221.918)" fill="#616775"/>
          </g>
        </g>
      </g>
      <g id="Group_383" data-name="Group 383" transform="translate(207.587 119.853)">
        <path id="Path_536" data-name="Path 536" d="M617.159,222.557l-.09,31.651-58.293,33.876.09-31.651Z" transform="translate(-558.776 -222.557)" fill="#686e7d"/>
      </g>
      <g id="Group_384" data-name="Group 384" transform="translate(0.458 35.411)">
        <path id="Path_537" data-name="Path 537" d="M497.077,232.138l-.09,31.651L292.053,145.471l.09-31.651Z" transform="translate(-292.053 -113.819)" fill="#484d57"/>
      </g>
      <g id="Group_385" data-name="Group 385" transform="translate(0.09)">
        <path id="Path_538" data-name="Path 538" d="M557.91,187.438a.778.778,0,0,1-.451.635L499.166,221.95a2.216,2.216,0,0,1-1.1.263,2.261,2.261,0,0,1-1.1-.263L292.037,103.631a.788.788,0,0,1-.458-.635.771.771,0,0,1,.451-.636l58.293-33.876a2.417,2.417,0,0,1,2.194,0L557.451,186.8A.789.789,0,0,1,557.91,187.438Zm-59.853,32.605,56.1-32.6L351.426,70.393l-56.1,32.6L498.058,220.043" transform="translate(-291.579 -68.22)" fill="#747b8c"/>
      </g>
      <g id="Group_388" data-name="Group 388" transform="translate(205.393 153.729)" style="isolation: isolate">
        <g id="Group_387" data-name="Group 387" clip-path="url(#clip-path-3)">
          <g id="Group_386" data-name="Group 386" style="isolation: isolate">
            <path id="Path_539" data-name="Path 539" d="M558.766,266.18l-.09,31.651a1.783,1.783,0,0,1-.348.152l.089-31.651a1.792,1.792,0,0,0,.349-.152" transform="translate(-556.482 -266.18)" fill="#616775"/>
            <path id="Path_540" data-name="Path 540" d="M558.333,266.376l-.089,31.651a2.261,2.261,0,0,1-.292.072l.09-31.651a2.247,2.247,0,0,0,.291-.072" transform="translate(-556.398 -266.224)" fill="#5e6471"/>
            <path id="Path_541" data-name="Path 541" d="M557.987,266.469l-.09,31.651c-.063.012-.127.02-.193.027l.089-31.651c.065-.007.13-.016.193-.027" transform="translate(-556.343 -266.245)" fill="#5c616e"/>
            <path id="Path_542" data-name="Path 542" d="M557.747,266.5l-.089,31.651c-.054.005-.107.009-.161.011l.089-31.651c.054,0,.109-.005.161-.011" transform="translate(-556.296 -266.252)" fill="#595e6b"/>
            <path id="Path_543" data-name="Path 543" d="M557.537,266.518l-.089,31.651c-.033,0-.068,0-.1,0h-.065l.089-31.651h.066c.034,0,.068,0,.1,0" transform="translate(-556.248 -266.255)" fill="#565c68"/>
            <path id="Path_544" data-name="Path 544" d="M557.327,266.516l-.089,31.651c-.051,0-.1,0-.15-.008l.089-31.651c.05,0,.1.007.15.008" transform="translate(-556.205 -266.253)" fill="#545964"/>
            <path id="Path_545" data-name="Path 545" d="M557.134,266.5l-.089,31.651c-.051,0-.1-.01-.151-.017l.089-31.651c.05.007.1.013.151.017" transform="translate(-556.162 -266.248)" fill="#515661"/>
            <path id="Path_546" data-name="Path 546" d="M556.939,266.478l-.089,31.651c-.053-.007-.1-.016-.155-.026l.089-31.652c.051.011.1.02.155.027" transform="translate(-556.117 -266.241)" fill="#4e535e"/>
            <path id="Path_547" data-name="Path 547" d="M556.735,266.439l-.089,31.652c-.057-.012-.112-.026-.166-.041l.09-31.651c.054.016.109.029.165.04" transform="translate(-556.069 -266.229)" fill="#4c505b"/>
            <path id="Path_548" data-name="Path 548" d="M556.516,266.381l-.09,31.651c-.065-.019-.128-.04-.189-.064l.09-31.651c.061.024.124.045.189.064" transform="translate(-556.015 -266.211)" fill="#494d57"/>
            <path id="Path_549" data-name="Path 549" d="M556.262,266.286l-.09,31.651a1.666,1.666,0,0,1-.221-.106l.089-31.651a1.638,1.638,0,0,0,.222.106" transform="translate(-555.951 -266.18)" fill="#464a54"/>
          </g>
        </g>
      </g>
    </g>
  </g>
</svg>
