<svg xmlns="http://www.w3.org/2000/svg" width="408.447" height="240.545" viewBox="0 0 408.447 240.545">
  <g id="Group_554" data-name="Group 554" transform="translate(-594 -159)">
    <g id="Group_553" data-name="Group 553" transform="translate(594 159)">
      <g id="Group_552" data-name="Group 552" transform="translate(0 0)" style="isolation: isolate">
        <g id="Group_539" data-name="Group 539" transform="translate(75.978 0.681)">
          <path id="Path_626" data-name="Path 626" d="M1029.264,111.353l-.1,33.738-57.617-33.265.1-33.738Z" transform="translate(-971.552 -78.088)" fill="#484d57"/>
        </g>
        <g id="Group_540" data-name="Group 540" transform="translate(133.594 11.967)">
          <path id="Path_627" data-name="Path 627" d="M1079.073,91.723l-.1,33.738-37.82,21.978.1-33.738Z" transform="translate(-1041.157 -91.723)" fill="#686e7d"/>
        </g>
        <g id="Group_541" data-name="Group 541" transform="translate(8.954 0.681)">
          <path id="Path_628" data-name="Path 628" d="M957.7,78.088l-.1,33.738-67.024,38.95.1-33.738Z" transform="translate(-890.581 -78.088)" fill="#686e7d"/>
        </g>
        <g id="Group_542" data-name="Group 542" transform="translate(7.774 39.631)">
          <path id="Path_629" data-name="Path 629" d="M950.984,160.785l-.1,33.738-61.733-35.642.1-33.738Z" transform="translate(-889.156 -125.144)" fill="#484d57"/>
        </g>
        <g id="Group_543" data-name="Group 543" transform="translate(1.17 75.269)">
          <path id="Path_630" data-name="Path 630" d="M950.785,168.2l-.1,33.738-69.513,40.4.1-33.738Z" transform="translate(-881.177 -168.198)" fill="#686e7d"/>
        </g>
        <g id="Group_544" data-name="Group 544" transform="translate(0 115.666)">
          <path id="Path_631" data-name="Path 631" d="M922.779,241.779l-.1,33.738-42.919-24.78.1-33.738Z" transform="translate(-879.764 -217)" fill="#484d57"/>
        </g>
        <g id="Group_545" data-name="Group 545" transform="translate(42.919 120.417)">
          <path id="Path_632" data-name="Path 632" d="M966.175,222.739l-.1,33.738-34.465,20.029.1-33.738Z" transform="translate(-931.614 -222.739)" fill="#686e7d"/>
        </g>
        <g id="Group_546" data-name="Group 546" transform="translate(171.414 11.967)">
          <path id="Path_633" data-name="Path 633" d="M1322.7,227.841l-.1,33.738L1086.846,125.461l.1-33.738Z" transform="translate(-1086.846 -91.723)" fill="#484d57"/>
        </g>
        <g id="Group_547" data-name="Group 547" transform="translate(77.384 120.417)">
          <path id="Path_634" data-name="Path 634" d="M1064.474,275.352l-.1,33.738L973.25,256.477l.1-33.738Z" transform="translate(-973.25 -222.739)" fill="#484d57"/>
        </g>
        <g id="Group_548" data-name="Group 548" transform="translate(168.512 149.779)">
          <path id="Path_635" data-name="Path 635" d="M1123.446,258.211l-.1,33.738-40.01,23.251.1-33.738Z" transform="translate(-1083.341 -258.211)" fill="#686e7d"/>
        </g>
        <g id="Group_549" data-name="Group 549" transform="translate(0.095)">
          <path id="Path_636" data-name="Path 636" d="M1051.3,88.552l236.936,136.794-101.054,58.726L1088.4,227.045l-40.01,23.251-91.128-52.613L922.8,217.712l-42.92-24.78,69.508-40.393L887.653,116.9l68.2-39.631,57.621,33.268ZM1187.173,283.4l99.882-58.045L1051.294,89.233l-37.82,21.979L955.857,77.946,888.834,116.9l61.727,35.639-69.513,40.4,41.746,24.1,34.465-20.028,91.129,52.613,40.01-23.251,98.776,57.028" transform="translate(-879.879 -77.266)" fill="#747b8c"/>
        </g>
        <g id="Group_550" data-name="Group 550" transform="translate(208.522 149.779)">
          <path id="Path_637" data-name="Path 637" d="M1230.547,315.239l-.1,33.738-98.776-57.028.1-33.738Z" transform="translate(-1131.676 -258.211)" fill="#484d57"/>
        </g>
        <g id="Group_551" data-name="Group 551" transform="translate(307.298 148.081)">
          <path id="Path_638" data-name="Path 638" d="M1352.154,256.16l-.1,33.738-101.053,58.726.1-33.738Z" transform="translate(-1251.005 -256.16)" fill="#686e7d"/>
        </g>
      </g>
    </g>
  </g>
</svg>
