<svg id="Group_351" data-name="Group 351" xmlns="http://www.w3.org/2000/svg" xmlns:xlink="http://www.w3.org/1999/xlink" width="242.185" height="179.762" viewBox="0 0 242.185 179.762">
  <defs>
    <clipPath id="clip-path">
      <path id="Path_453" data-name="Path 453" d="M587.25,697.7l-.089,31.651a.785.785,0,0,1-.458-.635l.089-31.651A.789.789,0,0,0,587.25,697.7Z" transform="translate(-586.703 -697.065)" fill="none"/>
    </clipPath>
    <clipPath id="clip-path-2">
      <path id="Path_463" data-name="Path 463" d="M898.413,757.383l-.089,31.651a.776.776,0,0,1-.45.631l.089-31.651A.773.773,0,0,0,898.413,757.383Z" transform="translate(-897.873 -757.383)" fill="none"/>
    </clipPath>
    <clipPath id="clip-path-3">
      <path id="Path_471" data-name="Path 471" d="M841.263,790.963l-.089,31.651a2.275,2.275,0,0,1-1.1.263l.089-31.651A2.272,2.272,0,0,0,841.263,790.963Z" transform="translate(-840.078 -790.963)" fill="none"/>
    </clipPath>
    <clipPath id="clip-path-4">
      <path id="Path_480" data-name="Path 480" d="M749.694,791.222l-.09,31.651a2.215,2.215,0,0,1-1.1-.263l.09-31.651A2.214,2.214,0,0,0,749.694,791.222Z" transform="translate(-748.505 -790.959)" fill="none"/>
    </clipPath>
  </defs>
  <g id="Group_350" data-name="Group 350">
    <g id="Group_349" data-name="Group 349" style="isolation: isolate">
      <g id="Group_330" data-name="Group 330" transform="translate(128.952 2.173)">
        <path id="Path_450" data-name="Path 450" d="M838.726,652.958l-.09,31.651-85.88-49.583.09-31.651Z" transform="translate(-752.757 -603.375)" fill="#484d57"/>
      </g>
      <g id="Group_331" data-name="Group 331" transform="translate(3.751 2.173)">
        <path id="Path_451" data-name="Path 451" d="M716.824,603.375l-.09,31.651-125.2,72.759.09-31.651Z" transform="translate(-591.533 -603.375)" fill="#686e7d"/>
      </g>
      <g id="Group_334" data-name="Group 334" transform="translate(0 74.93)" style="isolation: isolate">
        <g id="Group_333" data-name="Group 333" clip-path="url(#clip-path)">
          <g id="Group_332" data-name="Group 332" style="isolation: isolate">
            <path id="Path_452" data-name="Path 452" d="M587.25,697.7l-.089,31.651a.785.785,0,0,1-.458-.635l.089-31.651a.789.789,0,0,0,.458.635" transform="translate(-586.703 -697.065)" fill="#464a54"/>
          </g>
        </g>
      </g>
      <g id="Group_335" data-name="Group 335" transform="translate(214.832 51.756)">
        <path id="Path_454" data-name="Path 454" d="M887.461,736.933l-.09,31.651-24.025-69.71.09-31.651Z" transform="translate(-863.346 -667.224)" fill="#444851"/>
      </g>
      <g id="Group_338" data-name="Group 338" transform="translate(241.645 121.771)" style="isolation: isolate">
        <g id="Group_337" data-name="Group 337" clip-path="url(#clip-path-2)">
          <g id="Group_336" data-name="Group 336" style="isolation: isolate">
            <path id="Path_455" data-name="Path 455" d="M898.542,757.383l-.089,31.651v.014l.089-31.651v-.014" transform="translate(-898.003 -757.383)" fill="#4e535e"/>
            <path id="Path_456" data-name="Path 456" d="M898.539,757.4l-.089,31.651a.567.567,0,0,1-.01.089l.089-31.651a.5.5,0,0,0,.01-.089" transform="translate(-898 -757.387)" fill="#515661"/>
            <path id="Path_457" data-name="Path 457" d="M898.522,757.515l-.089,31.651a.617.617,0,0,1-.026.087l.09-31.651a.524.524,0,0,0,.025-.087" transform="translate(-897.992 -757.412)" fill="#545964"/>
            <path id="Path_458" data-name="Path 458" d="M898.485,757.627l-.09,31.651a.654.654,0,0,1-.041.089l.09-31.651a.762.762,0,0,0,.041-.089" transform="translate(-897.98 -757.438)" fill="#565c68"/>
            <path id="Path_459" data-name="Path 459" d="M898.426,757.741l-.09,31.651a.836.836,0,0,1-.062.092l.089-31.651a.753.753,0,0,0,.063-.092" transform="translate(-897.963 -757.463)" fill="#595e6b"/>
            <path id="Path_460" data-name="Path 460" d="M898.335,757.86l-.089,31.651a.937.937,0,0,1-.1.1l.09-31.651a.929.929,0,0,0,.1-.1" transform="translate(-897.935 -757.49)" fill="#5c616e"/>
            <path id="Path_461" data-name="Path 461" d="M898.183,757.994l-.09,31.651a1.131,1.131,0,0,1-.194.144l.09-31.651a1.2,1.2,0,0,0,.194-.144" transform="translate(-897.879 -757.52)" fill="#5e6471"/>
            <path id="Path_462" data-name="Path 462" d="M897.983,758.18l-.09,31.651-.02.012.089-31.651.021-.012" transform="translate(-897.873 -757.561)" fill="#616775"/>
          </g>
        </g>
      </g>
      <g id="Group_339" data-name="Group 339" transform="translate(197.858 122.402)">
        <path id="Path_464" data-name="Path 464" d="M885.365,758.2l-.09,31.651-43.786,25.446.09-31.651Z" transform="translate(-841.489 -758.196)" fill="#686e7d"/>
      </g>
      <g id="Group_340" data-name="Group 340" transform="translate(0.458 75.565)">
        <path id="Path_465" data-name="Path 465" d="M712.575,770.163l-.09,31.651-125.193-72.28.09-31.651Z" transform="translate(-587.293 -697.883)" fill="#484d57"/>
      </g>
      <g id="Group_343" data-name="Group 343" transform="translate(196.763 147.848)" style="isolation: isolate">
        <g id="Group_342" data-name="Group 342" clip-path="url(#clip-path-3)">
          <g id="Group_341" data-name="Group 341" style="isolation: isolate">
            <path id="Path_466" data-name="Path 466" d="M841.48,790.963l-.089,31.651a1.789,1.789,0,0,1-.343.149l.089-31.652a1.719,1.719,0,0,0,.342-.148" transform="translate(-840.295 -790.963)" fill="#616775"/>
            <path id="Path_467" data-name="Path 467" d="M841.052,791.154l-.089,31.652a2.383,2.383,0,0,1-.3.073l.089-31.651a2.322,2.322,0,0,0,.3-.074" transform="translate(-840.209 -791.006)" fill="#5e6471"/>
            <path id="Path_468" data-name="Path 468" d="M840.7,791.249l-.089,31.651c-.066.012-.134.022-.2.028l.09-31.651c.068-.006.135-.015.2-.028" transform="translate(-840.151 -791.027)" fill="#5c616e"/>
            <path id="Path_469" data-name="Path 469" d="M840.447,791.285l-.09,31.651c-.055.006-.111.009-.167.012l.089-31.651c.056,0,.113-.006.168-.012" transform="translate(-840.103 -791.035)" fill="#595e6b"/>
            <path id="Path_470" data-name="Path 470" d="M840.254,791.3l-.089,31.651-.087,0,.089-31.651.087,0" transform="translate(-840.078 -791.038)" fill="#565c68"/>
          </g>
        </g>
      </g>
      <g id="Group_344" data-name="Group 344" transform="translate(126.749 148.108)">
        <path id="Path_472" data-name="Path 472" d="M820.023,791.3l-.09,31.651-70.013,0,.09-31.651Z" transform="translate(-749.92 -791.298)" fill="#5e6471"/>
      </g>
      <g id="Group_347" data-name="Group 347" transform="translate(125.65 147.845)" style="isolation: isolate">
        <g id="Group_346" data-name="Group 346" clip-path="url(#clip-path-4)">
          <g id="Group_345" data-name="Group 345" style="isolation: isolate">
            <path id="Path_473" data-name="Path 473" d="M749.987,791.3l-.09,31.651c-.027,0-.054,0-.081,0l.089-31.651c.027,0,.054,0,.081,0" transform="translate(-748.798 -791.034)" fill="#565c68"/>
            <path id="Path_474" data-name="Path 474" d="M749.864,791.295l-.089,31.651q-.072,0-.144-.007l.09-31.652c.047,0,.1.007.144.008" transform="translate(-748.756 -791.032)" fill="#545964"/>
            <path id="Path_475" data-name="Path 475" d="M749.678,791.283l-.09,31.652-.144-.016.09-31.651c.047.006.1.012.144.016" transform="translate(-748.715 -791.028)" fill="#515661"/>
            <path id="Path_476" data-name="Path 476" d="M749.491,791.259l-.09,31.651c-.05-.008-.1-.016-.15-.026l.09-31.651c.049.01.1.019.15.026" transform="translate(-748.672 -791.02)" fill="#4e535e"/>
            <path id="Path_477" data-name="Path 477" d="M749.295,791.222l-.09,31.651c-.055-.012-.109-.025-.161-.04l.089-31.651c.053.015.107.028.162.04" transform="translate(-748.625 -791.009)" fill="#4c505b"/>
            <path id="Path_478" data-name="Path 478" d="M749.078,791.164l-.089,31.651a1.918,1.918,0,0,1-.189-.064l.089-31.651a1.99,1.99,0,0,0,.189.064" transform="translate(-748.571 -790.99)" fill="#494d57"/>
            <path id="Path_479" data-name="Path 479" d="M748.823,791.068l-.089,31.651a1.637,1.637,0,0,1-.229-.109l.09-31.651a1.618,1.618,0,0,0,.228.11" transform="translate(-748.505 -790.959)" fill="#464a54"/>
          </g>
        </g>
      </g>
      <g id="Group_348" data-name="Group 348" transform="translate(0.089)">
        <path id="Path_481" data-name="Path 481" d="M828.884,722.171c.1.292-.056.6-.421.808l-43.786,25.446a2.272,2.272,0,0,1-1.1.263l-70.013,0a2.214,2.214,0,0,1-1.1-.263l-125.193-72.28a.788.788,0,0,1-.458-.635.779.779,0,0,1,.451-.636l127.389-74.03a2.27,2.27,0,0,1,1.1-.263,2.3,2.3,0,0,1,1.1.264l87.317,50.413a.889.889,0,0,1,.428.464Zm-45.961,24.716,42.753-24.845L801.65,652.333,715.771,602.75l-125.2,72.759L714.2,746.887h68.723" transform="translate(-586.818 -600.577)" fill="#747b8c"/>
      </g>
    </g>
  </g>
</svg>
