<svg xmlns="http://www.w3.org/2000/svg" xmlns:xlink="http://www.w3.org/1999/xlink" width="278.459" height="172.446" viewBox="0 0 278.459 172.446">
  <defs>
    <clipPath id="clip-path">
      <path id="Path_492" data-name="Path 492" d="M500.022,377.175l-.09,31.651a.781.781,0,0,1-.468.641l.089-31.651A.78.78,0,0,0,500.022,377.175Z" transform="translate(-499.464 -377.175)" fill="none"/>
    </clipPath>
    <clipPath id="clip-path-2">
      <path id="Path_494" data-name="Path 494" d="M258.408,409.311l-.09,31.651c-1.037-.759-1.6-1.114-2.331-1.563-1.468-.9-3.615-2.184-6.3-3.769-5.375-3.166-12.907-7.543-21.514-12.513-30.13-17.4-73.453-42.082-83.81-47.983-1.478-.841-2.281-1.3-2.285-1.3a.8.8,0,0,1-.468-.635l.089-31.651a.8.8,0,0,0,.468.635l2.285,1.3c10.357,5.9,53.68,30.587,83.81,47.983,8.607,4.969,16.139,9.346,21.513,12.512,2.688,1.587,4.835,2.872,6.3,3.77C256.806,408.2,257.371,408.552,258.408,409.311Z" transform="translate(-141.607 -341.545)" fill="none"/>
    </clipPath>
    <clipPath id="clip-path-3">
      <path id="Path_496" data-name="Path 496" d="M330.966,401.764l-.09,31.651c-3.865,2.341-17.144,10.362-26.493,15.795-2.029,1.179-3.867,2.236-5.394,3.088s-2.73,1.5-3.543,1.886c-.231.112-.434.2-.645.283l.089-31.651c.212-.083.414-.172.646-.283.813-.386,2.011-1.031,3.542-1.886s3.365-1.91,5.395-3.089C313.821,412.126,327.1,404.1,330.966,401.764Z" transform="translate(-294.801 -401.764)" fill="none"/>
    </clipPath>
    <clipPath id="clip-path-4">
      <path id="Path_507" data-name="Path 507" d="M294.242,428.859l-.089,31.651a3.6,3.6,0,0,1-1.635.169,2.042,2.042,0,0,1-.619-.221l.09-31.651a2.042,2.042,0,0,0,.619.221A3.6,3.6,0,0,0,294.242,428.859Z" transform="translate(-291.898 -428.808)" fill="none"/>
    </clipPath>
    <clipPath id="clip-path-5">
      <path id="Path_522" data-name="Path 522" d="M399.539,434.113l-.09,31.651a2.434,2.434,0,0,1-2.179-.009l.089-31.652A2.436,2.436,0,0,0,399.539,434.113Z" transform="translate(-397.27 -434.104)" fill="none"/>
    </clipPath>
  </defs>
  <g id="Group_374" data-name="Group 374" transform="translate(10 37)">
    <g id="Group_373" data-name="Group 373" transform="translate(-10 -37)">
      <g id="Group_372" data-name="Group 372" style="isolation: isolate">
        <g id="Group_352" data-name="Group 352" transform="translate(3.758 2.187)">
          <path id="Path_482" data-name="Path 482" d="M260.9,255.954l-.09,31.652-114.362,66.46.09-31.651Z" transform="translate(-146.447 -255.954)" fill="#686e7d"/>
        </g>
        <g id="Group_353" data-name="Group 353" transform="translate(118.12 2.187)">
          <path id="Path_483" data-name="Path 483" d="M450.307,350.067l-.09,31.651-156.5-94.113.09-31.652Z" transform="translate(-293.712 -255.954)" fill="#484c56"/>
        </g>
        <g id="Group_356" data-name="Group 356" transform="translate(277.9 96.323)" style="isolation: isolate">
          <g id="Group_355" data-name="Group 355" clip-path="url(#clip-path)">
            <g id="Group_354" data-name="Group 354" style="isolation: isolate">
              <path id="Path_484" data-name="Path 484" d="M500.157,377.175l-.09,31.651v.013l.089-31.651v-.013" transform="translate(-499.599 -377.175)" fill="#4e535e"/>
              <path id="Path_485" data-name="Path 485" d="M500.153,377.192l-.089,31.651a.573.573,0,0,1-.01.089l.089-31.652a.489.489,0,0,0,.01-.089" transform="translate(-499.596 -377.179)" fill="#515661"/>
              <path id="Path_486" data-name="Path 486" d="M500.136,377.306l-.089,31.652a.608.608,0,0,1-.025.087l.089-31.651a.511.511,0,0,0,.025-.088" transform="translate(-499.589 -377.204)" fill="#545964"/>
              <path id="Path_487" data-name="Path 487" d="M500.1,377.419l-.089,31.651a.6.6,0,0,1-.042.088l.09-31.651a.594.594,0,0,0,.041-.088" transform="translate(-499.577 -377.229)" fill="#565c68"/>
              <path id="Path_488" data-name="Path 488" d="M500.04,377.532l-.09,31.651a.626.626,0,0,1-.062.093l.089-31.651a.7.7,0,0,0,.063-.093" transform="translate(-499.559 -377.255)" fill="#595e6b"/>
              <path id="Path_489" data-name="Path 489" d="M499.95,377.652l-.089,31.651a.969.969,0,0,1-.1.1l.09-31.651a.889.889,0,0,0,.095-.1" transform="translate(-499.531 -377.282)" fill="#5c616e"/>
              <path id="Path_490" data-name="Path 490" d="M499.8,377.784l-.09,31.651a1.17,1.17,0,0,1-.2.148l.09-31.652a1.19,1.19,0,0,0,.2-.147" transform="translate(-499.474 -377.311)" fill="#5e6471"/>
              <path id="Path_491" data-name="Path 491" d="M499.589,377.973l-.09,31.652-.035.02.089-31.651.036-.021" transform="translate(-499.464 -377.353)" fill="#616775"/>
            </g>
          </g>
        </g>
        <g id="Group_359" data-name="Group 359" transform="translate(0 68.654)" style="isolation: isolate">
          <g id="Group_358" data-name="Group 358" clip-path="url(#clip-path-2)">
            <g id="Group_357" data-name="Group 357" style="isolation: isolate">
              <path id="Path_493" data-name="Path 493" d="M258.408,409.311l-.09,31.651c-1.037-.759-1.6-1.114-2.331-1.563-1.468-.9-3.615-2.184-6.3-3.769-5.375-3.166-12.907-7.543-21.514-12.513-30.13-17.4-73.453-42.082-83.81-47.983-1.478-.841-2.281-1.3-2.285-1.3a.8.8,0,0,1-.468-.635l.089-31.651a.8.8,0,0,0,.468.635l2.285,1.3c10.357,5.9,53.68,30.587,83.81,47.983,8.607,4.969,16.139,9.346,21.513,12.512,2.688,1.587,4.835,2.872,6.3,3.77.729.45,1.295.8,2.332,1.563" transform="translate(-141.607 -341.545)" fill="#464a54"/>
            </g>
          </g>
        </g>
        <g id="Group_362" data-name="Group 362" transform="translate(118.966 115.418)" style="isolation: isolate">
          <g id="Group_361" data-name="Group 361" clip-path="url(#clip-path-3)">
            <g id="Group_360" data-name="Group 360" style="isolation: isolate">
              <path id="Path_495" data-name="Path 495" d="M330.966,401.764l-.09,31.651c-3.865,2.341-17.144,10.362-26.493,15.795-2.029,1.179-3.867,2.236-5.394,3.088s-2.73,1.5-3.543,1.886c-.231.112-.434.2-.645.283l.089-31.651c.212-.083.414-.172.646-.283.813-.386,2.011-1.031,3.542-1.886s3.365-1.91,5.395-3.089c9.348-5.432,22.627-13.454,26.493-15.794" transform="translate(-294.801 -401.764)" fill="#616775"/>
            </g>
          </g>
        </g>
        <g id="Group_365" data-name="Group 365" transform="translate(116.711 136.42)" style="isolation: isolate">
          <g id="Group_364" data-name="Group 364" clip-path="url(#clip-path-4)">
            <g id="Group_363" data-name="Group 363" style="isolation: isolate">
              <path id="Path_497" data-name="Path 497" d="M294.688,428.874l-.089,31.651c-.29.066-.516.114-.7.148l.09-31.651c.186-.033.412-.082.7-.148" transform="translate(-292.345 -428.823)" fill="#5e6471"/>
              <path id="Path_498" data-name="Path 498" d="M293.891,429.064l-.09,31.651c-.127.023-.236.04-.333.049l.089-31.651c.1-.01.207-.026.334-.049" transform="translate(-292.249 -428.865)" fill="#5c616e"/>
              <path id="Path_499" data-name="Path 499" d="M293.513,429.127l-.089,31.651c-.054.005-.1.009-.152.01l.09-31.651c.048,0,.1,0,.151-.01" transform="translate(-292.205 -428.879)" fill="#595e6b"/>
              <path id="Path_500" data-name="Path 500" d="M293.33,429.14l-.09,31.651c-.038,0-.075,0-.112,0l.09-31.651c.036,0,.073,0,.112,0" transform="translate(-292.173 -428.882)" fill="#565c68"/>
              <path id="Path_501" data-name="Path 501" d="M293.189,429.139l-.09,31.651c-.034,0-.068,0-.1-.005l.089-31.651c.034,0,.068,0,.1.005" transform="translate(-292.144 -428.881)" fill="#545964"/>
              <path id="Path_502" data-name="Path 502" d="M293.053,429.13l-.089,31.651c-.039,0-.077-.008-.115-.013l.089-31.651c.039.005.077.01.115.013" transform="translate(-292.111 -428.877)" fill="#515661"/>
              <path id="Path_503" data-name="Path 503" d="M292.892,429.109,292.8,460.76c-.04-.005-.078-.012-.12-.019l-.042-.009.089-31.651.043.009c.04.008.08.014.119.019" transform="translate(-292.064 -428.869)" fill="#4e535e"/>
              <path id="Path_504" data-name="Path 504" d="M292.687,429.07l-.089,31.651q-.075-.015-.151-.037l.089-31.651c.051.015.1.027.151.037" transform="translate(-292.02 -428.858)" fill="#4c505b"/>
              <path id="Path_505" data-name="Path 505" d="M292.478,429.014l-.089,31.651a2.063,2.063,0,0,1-.2-.067l.089-31.651c.065.026.133.048.2.067" transform="translate(-291.963 -428.839)" fill="#494d57"/>
              <path id="Path_506" data-name="Path 506" d="M292.214,428.916l-.089,31.651a1.745,1.745,0,0,1-.227-.108l.09-31.651a1.735,1.735,0,0,0,.226.108" transform="translate(-291.898 -428.808)" fill="#464a54"/>
            </g>
          </g>
        </g>
        <g id="Group_366" data-name="Group 366" transform="translate(155.04 115.419)">
          <path id="Path_508" data-name="Path 508" d="M384.844,426.879l-.09,31.651-43.5-25.114.09-31.651Z" transform="translate(-341.255 -401.764)" fill="#484d57"/>
        </g>
        <g id="Group_367" data-name="Group 367" transform="translate(200.719 96.964)">
          <path id="Path_509" data-name="Path 509" d="M477.347,378l-.09,31.651-77.181,43.578.09-31.651Z" transform="translate(-400.076 -378)" fill="#686e7d"/>
        </g>
        <g id="Group_368" data-name="Group 368" transform="translate(0.089)">
          <path id="Path_510" data-name="Path 510" d="M419.655,348.836c.595.355.579.922-.033,1.266L342.442,393.68a2.436,2.436,0,0,1-2.18-.009l-43.5-25.114c-3.866,2.34-17.144,10.362-26.493,15.794-2.03,1.18-3.867,2.236-5.395,3.089s-2.729,1.5-3.542,1.886c-.232.112-.434.2-.646.283a3.6,3.6,0,0,1-1.635.169,2.043,2.043,0,0,1-.619-.221c-1.037-.759-1.6-1.114-2.332-1.563-1.468-.9-3.615-2.184-6.3-3.77-5.375-3.166-12.906-7.543-21.513-12.512-30.131-17.4-73.453-42.082-83.81-47.983l-2.285-1.3a.8.8,0,0,1-.468-.635.777.777,0,0,1,.451-.641L258.755,253.4a2.418,2.418,0,0,1,2.2,0ZM341.368,391.77l74.979-42.332-156.5-94.113-114.362,66.46c7.7,4.386,53.527,30.49,84.992,48.657,11.548,6.668,21.161,12.264,26.264,15.335,1.375.832,2.42,1.472,3.108,1.917.414-.208.933-.483,1.534-.812,1.685-.922,4.025-2.253,6.69-3.8,8.256-4.8,19.623-11.645,24.785-14.766,1.724-1.042,2.753-1.663,2.758-1.666a2.246,2.246,0,0,1,1.1-.278,2.273,2.273,0,0,1,1.118.263l43.538,25.137" transform="translate(-141.722 -253.138)" fill="#747b8c"/>
        </g>
        <g id="Group_371" data-name="Group 371" transform="translate(198.54 140.533)" style="isolation: isolate">
          <g id="Group_370" data-name="Group 370" clip-path="url(#clip-path-5)">
            <g id="Group_369" data-name="Group 369" style="isolation: isolate">
              <path id="Path_511" data-name="Path 511" d="M400.073,434.116l-.09,31.651a1.781,1.781,0,0,1-.323.139l.09-31.651a1.83,1.83,0,0,0,.323-.139" transform="translate(-397.804 -434.107)" fill="#616775"/>
              <path id="Path_512" data-name="Path 512" d="M399.666,434.295l-.09,31.651a2.218,2.218,0,0,1-.294.073l.089-31.651a2.228,2.228,0,0,0,.294-.073" transform="translate(-397.72 -434.147)" fill="#5e6471"/>
              <path id="Path_513" data-name="Path 513" d="M399.314,434.389l-.089,31.651c-.065.012-.132.021-.2.028l.089-31.651c.068-.007.134-.016.2-.028" transform="translate(-397.662 -434.168)" fill="#5c616e"/>
              <path id="Path_514" data-name="Path 514" d="M399.065,434.425l-.089,31.651c-.058.005-.116.009-.174.012l.089-31.651c.058,0,.116-.006.174-.012" transform="translate(-397.612 -434.176)" fill="#595e6b"/>
              <path id="Path_515" data-name="Path 515" d="M398.845,434.44l-.089,31.651c-.054,0-.106,0-.16,0l.09-31.651c.053,0,.106,0,.159,0" transform="translate(-397.566 -434.179)" fill="#565c68"/>
              <path id="Path_516" data-name="Path 516" d="M398.642,434.439l-.09,31.651c-.051,0-.1,0-.154-.009l.09-31.651c.05,0,.1.007.154.009" transform="translate(-397.522 -434.177)" fill="#545964"/>
              <path id="Path_517" data-name="Path 517" d="M398.445,434.425l-.09,31.651c-.051,0-.1-.009-.151-.017l.09-31.651c.05.007.1.013.151.017" transform="translate(-397.478 -434.172)" fill="#515661"/>
              <path id="Path_518" data-name="Path 518" d="M398.249,434.4l-.09,31.651c-.052-.007-.1-.016-.154-.026l.089-31.651c.051.01.1.019.155.026" transform="translate(-397.434 -434.164)" fill="#4e535e"/>
              <path id="Path_519" data-name="Path 519" d="M398.048,434.363l-.089,31.651c-.055-.012-.109-.025-.162-.04l.089-31.651c.053.015.107.028.162.04" transform="translate(-397.388 -434.153)" fill="#4c505b"/>
              <path id="Path_520" data-name="Path 520" d="M397.832,434.3l-.089,31.651c-.064-.019-.127-.04-.188-.064l.09-31.651c.061.024.123.045.187.064" transform="translate(-397.334 -434.135)" fill="#494d57"/>
              <path id="Path_521" data-name="Path 521" d="M397.581,434.21l-.09,31.651a1.662,1.662,0,0,1-.221-.106l.089-31.652a1.585,1.585,0,0,0,.222.106" transform="translate(-397.27 -434.104)" fill="#464a54"/>
            </g>
          </g>
        </g>
      </g>
    </g>
  </g>
</svg>
