<svg id="Group_268" data-name="Group 268" xmlns="http://www.w3.org/2000/svg" xmlns:xlink="http://www.w3.org/1999/xlink" width="327.584" height="197.207" viewBox="0 0 327.584 197.207">
  <defs>
    <clipPath id="clip-path">
      <path id="Path_315" data-name="Path 315" d="M1365.911,617.021l-.089,31.651a.785.785,0,0,1-.451.635l.089-31.651A.783.783,0,0,0,1365.911,617.021Z" transform="translate(-1365.371 -617.021)" fill="none"/>
    </clipPath>
    <clipPath id="clip-path-2">
      <path id="Path_318" data-name="Path 318" d="M944.78,629.712l-.09,31.651a.788.788,0,0,1-.458-.636l.09-31.651A.787.787,0,0,0,944.78,629.712Z" transform="translate(-944.232 -629.076)" fill="none"/>
    </clipPath>
    <clipPath id="clip-path-3">
      <path id="Path_326" data-name="Path 326" d="M1082.445,707.85l-.089,31.651a2.2,2.2,0,0,1-1.1.263l.089-31.651A2.2,2.2,0,0,0,1082.445,707.85Z" transform="translate(-1081.26 -707.85)" fill="none"/>
    </clipPath>
    <clipPath id="clip-path-4">
      <path id="Path_334" data-name="Path 334" d="M1081.033,708.113l-.089,31.651a2.216,2.216,0,0,1-1.1-.263l.089-31.651A2.214,2.214,0,0,0,1081.033,708.113Z" transform="translate(-1079.845 -707.85)" fill="none"/>
    </clipPath>
    <clipPath id="clip-path-5">
      <path id="Path_349" data-name="Path 349" d="M1199.806,713.74l-.09,31.651a2.437,2.437,0,0,1-2.195.006l.09-31.651A2.437,2.437,0,0,0,1199.806,713.74Z" transform="translate(-1197.521 -713.74)" fill="none"/>
    </clipPath>
  </defs>
  <g id="Group_267" data-name="Group 267">
    <g id="Group_266" data-name="Group 266" style="isolation: isolate">
      <g id="Group_244" data-name="Group 244" transform="translate(171.31 2.173)">
        <path id="Path_306" data-name="Path 306" d="M1317.354,591.7l-.09,31.651L1164.831,535.34l.09-31.651Z" transform="translate(-1164.831 -503.689)" fill="#484d57"/>
      </g>
      <g id="Group_247" data-name="Group 247" transform="translate(327.043 90.183)" style="isolation: isolate">
        <g id="Group_246" data-name="Group 246" clip-path="url(#clip-path)">
          <g id="Group_245" data-name="Group 245" style="isolation: isolate">
            <path id="Path_307" data-name="Path 307" d="M1366.041,617.021l-.089,31.651a.12.12,0,0,1,0,.017l.09-31.651v-.017" transform="translate(-1365.501 -617.021)" fill="#4e535e"/>
            <path id="Path_308" data-name="Path 308" d="M1366.038,617.043l-.09,31.651a.549.549,0,0,1-.009.085l.089-31.651a.454.454,0,0,0,.01-.085" transform="translate(-1365.498 -617.026)" fill="#515661"/>
            <path id="Path_309" data-name="Path 309" d="M1366.021,617.153l-.089,31.651a.689.689,0,0,1-.025.087L1366,617.24a.508.508,0,0,0,.025-.087" transform="translate(-1365.491 -617.05)" fill="#545964"/>
            <path id="Path_310" data-name="Path 310" d="M1365.984,617.265l-.089,31.651a.621.621,0,0,1-.043.089l.09-31.651a.6.6,0,0,0,.042-.089" transform="translate(-1365.478 -617.076)" fill="#565c68"/>
            <path id="Path_311" data-name="Path 311" d="M1365.924,617.38l-.09,31.651a.73.73,0,0,1-.064.1l.089-31.651a.733.733,0,0,0,.064-.1" transform="translate(-1365.46 -617.101)" fill="#595e6b"/>
            <path id="Path_312" data-name="Path 312" d="M1365.831,617.5l-.089,31.651a.917.917,0,0,1-.1.106l.089-31.651a.917.917,0,0,0,.1-.106" transform="translate(-1365.432 -617.129)" fill="#5c616e"/>
            <path id="Path_313" data-name="Path 313" d="M1365.677,617.64l-.089,31.651a1.2,1.2,0,0,1-.192.143l.09-31.651a1.2,1.2,0,0,0,.191-.143" transform="translate(-1365.377 -617.159)" fill="#5e6471"/>
            <path id="Path_314" data-name="Path 314" d="M1365.48,617.824l-.09,31.651-.019.012.089-31.651.02-.012" transform="translate(-1365.371 -617.2)" fill="#616775"/>
          </g>
        </g>
      </g>
      <g id="Group_248" data-name="Group 248" transform="translate(3.751 2.173)">
        <path id="Path_316" data-name="Path 316" d="M1116.711,503.689l-.09,31.651-167.56,97.375.09-31.651Z" transform="translate(-949.062 -503.689)" fill="#686e7d"/>
      </g>
      <g id="Group_251" data-name="Group 251" transform="translate(0 99.544)" style="isolation: isolate">
        <g id="Group_250" data-name="Group 250" clip-path="url(#clip-path-2)">
          <g id="Group_249" data-name="Group 249" style="isolation: isolate">
            <path id="Path_317" data-name="Path 317" d="M944.78,629.712l-.09,31.651a.788.788,0,0,1-.458-.636l.09-31.651a.787.787,0,0,0,.458.636" transform="translate(-944.232 -629.076)" fill="#464a54"/>
          </g>
        </g>
      </g>
      <g id="Group_252" data-name="Group 252" transform="translate(107.507 137.396)">
        <path id="Path_319" data-name="Path 319" d="M1122.892,677.818l-.09,31.651-40.131,23.322.09-31.651Z" transform="translate(-1082.671 -677.818)" fill="#686e7d"/>
      </g>
      <g id="Group_253" data-name="Group 253" transform="translate(0.459 100.18)">
        <path id="Path_320" data-name="Path 320" d="M1049.766,690.432l-.09,31.651L944.822,661.546l.09-31.651Z" transform="translate(-944.822 -629.895)" fill="#484d57"/>
      </g>
      <g id="Group_256" data-name="Group 256" transform="translate(106.412 160.718)" style="isolation: isolate">
        <g id="Group_255" data-name="Group 255" clip-path="url(#clip-path-3)">
          <g id="Group_254" data-name="Group 254" style="isolation: isolate">
            <path id="Path_321" data-name="Path 321" d="M1082.66,707.85l-.089,31.651a1.773,1.773,0,0,1-.35.154l.089-31.652a1.776,1.776,0,0,0,.35-.153" transform="translate(-1081.474 -707.85)" fill="#616775"/>
            <path id="Path_322" data-name="Path 322" d="M1082.227,708.047l-.089,31.652a2.353,2.353,0,0,1-.287.071l.09-31.651a2.162,2.162,0,0,0,.287-.071" transform="translate(-1081.392 -707.894)" fill="#5e6471"/>
            <path id="Path_323" data-name="Path 323" d="M1081.885,708.139l-.09,31.651c-.063.012-.127.02-.192.027l.09-31.651c.064-.007.129-.016.192-.027" transform="translate(-1081.337 -707.914)" fill="#5c616e"/>
            <path id="Path_324" data-name="Path 324" d="M1081.646,708.174l-.09,31.651c-.053,0-.108.009-.162.011l.09-31.652c.054,0,.109-.005.162-.01" transform="translate(-1081.29 -707.922)" fill="#595e6b"/>
            <path id="Path_325" data-name="Path 325" d="M1081.454,708.187l-.09,31.652c-.034,0-.069,0-.1,0l.089-31.651c.035,0,.07,0,.1,0" transform="translate(-1081.26 -707.925)" fill="#565c68"/>
          </g>
        </g>
      </g>
      <g id="Group_259" data-name="Group 259" transform="translate(105.313 160.718)" style="isolation: isolate">
        <g id="Group_258" data-name="Group 258" clip-path="url(#clip-path-4)">
          <g id="Group_257" data-name="Group 257" style="isolation: isolate">
            <path id="Path_327" data-name="Path 327" d="M1081.326,708.189l-.089,31.651c-.027,0-.054,0-.081,0l.089-31.651h.081" transform="translate(-1080.138 -707.925)" fill="#565c68"/>
            <path id="Path_328" data-name="Path 328" d="M1081.2,708.186l-.089,31.651c-.048,0-.1,0-.145-.008l.09-31.651c.047,0,.1.007.144.008" transform="translate(-1080.096 -707.923)" fill="#545964"/>
            <path id="Path_329" data-name="Path 329" d="M1081.019,708.174l-.09,31.651c-.049,0-.1-.009-.144-.015l.09-31.651c.047.006.1.012.145.015" transform="translate(-1080.055 -707.919)" fill="#515661"/>
            <path id="Path_330" data-name="Path 330" d="M1080.831,708.15l-.09,31.651c-.05-.008-.1-.016-.15-.026l.09-31.651c.049.01.1.019.15.026" transform="translate(-1080.012 -707.911)" fill="#4e535e"/>
            <path id="Path_331" data-name="Path 331" d="M1080.635,708.113l-.09,31.651c-.055-.012-.109-.025-.161-.04l.089-31.651c.053.015.107.028.162.04" transform="translate(-1079.965 -707.9)" fill="#4c505b"/>
            <path id="Path_332" data-name="Path 332" d="M1080.418,708.055l-.089,31.651a1.981,1.981,0,0,1-.189-.064l.09-31.651a1.986,1.986,0,0,0,.189.064" transform="translate(-1079.911 -707.881)" fill="#494d57"/>
            <path id="Path_333" data-name="Path 333" d="M1080.163,707.96l-.09,31.651a1.68,1.68,0,0,1-.228-.109l.089-31.651a1.75,1.75,0,0,0,.229.11" transform="translate(-1079.845 -707.85)" fill="#464a54"/>
          </g>
        </g>
      </g>
      <g id="Group_260" data-name="Group 260" transform="translate(198.891 90.818)">
        <path id="Path_335" data-name="Path 335" d="M1328.589,617.839l-.09,31.651-128.152,74.474.09-31.651Z" transform="translate(-1200.347 -617.839)" fill="#686e7d"/>
      </g>
      <g id="Group_261" data-name="Group 261" transform="translate(147.639 137.396)">
        <path id="Path_336" data-name="Path 336" d="M1183.5,705.72l-.09,31.651-49.058-27.9.09-31.651Z" transform="translate(-1134.349 -677.818)" fill="#494d57"/>
      </g>
      <g id="Group_262" data-name="Group 262" transform="translate(0.09)">
        <path id="Path_337" data-name="Path 337" d="M1271.842,591.074a.783.783,0,0,1-.451.635l-128.152,74.474a2.438,2.438,0,0,1-2.195.006l-49.058-27.9-40.132,23.322a2.417,2.417,0,0,1-2.194,0L944.806,601.071a.787.787,0,0,1-.458-.636.777.777,0,0,1,.451-.635l169.746-98.646a2.263,2.263,0,0,1,1.1-.263,2.3,2.3,0,0,1,1.1.263l154.639,89.28A.806.806,0,0,1,1271.842,591.074Zm-129.724,73.2,125.973-73.208-152.433-88.007L948.1,600.439,1050.746,659.7l40.127-23.319a2.415,2.415,0,0,1,2.184-.005l49.061,27.9" transform="translate(-944.348 -500.891)" fill="#747b8c"/>
      </g>
      <g id="Group_265" data-name="Group 265" transform="translate(196.696 165.292)" style="isolation: isolate">
        <g id="Group_264" data-name="Group 264" clip-path="url(#clip-path-5)">
          <g id="Group_263" data-name="Group 263" style="isolation: isolate">
            <path id="Path_338" data-name="Path 338" d="M1200.339,713.74l-.09,31.651a1.718,1.718,0,0,1-.339.15l.089-31.652a1.722,1.722,0,0,0,.34-.149" transform="translate(-1198.055 -713.74)" fill="#616775"/>
            <path id="Path_339" data-name="Path 339" d="M1199.914,713.932l-.089,31.652a2.238,2.238,0,0,1-.3.073l.089-31.651a2.209,2.209,0,0,0,.3-.074" transform="translate(-1197.97 -713.783)" fill="#5e6471"/>
            <path id="Path_340" data-name="Path 340" d="M1199.562,714.027l-.089,31.651q-.1.017-.2.028l.09-31.651c.067-.007.134-.016.2-.028" transform="translate(-1197.912 -713.804)" fill="#5c616e"/>
            <path id="Path_341" data-name="Path 341" d="M1199.312,714.063l-.09,31.651c-.057.005-.116.009-.173.012l.089-31.651c.058,0,.116-.006.174-.012" transform="translate(-1197.862 -713.812)" fill="#595e6b"/>
            <path id="Path_342" data-name="Path 342" d="M1199.092,714.078,1199,745.729c-.054,0-.107,0-.161,0l.089-31.651c.053,0,.107,0,.161,0" transform="translate(-1197.816 -713.815)" fill="#565c68"/>
            <path id="Path_343" data-name="Path 343" d="M1198.887,714.077l-.089,31.651c-.052,0-.1,0-.155-.009l.09-31.651c.051,0,.1.007.154.009" transform="translate(-1197.772 -713.813)" fill="#545964"/>
            <path id="Path_344" data-name="Path 344" d="M1198.689,714.063l-.09,31.651c-.051,0-.1-.009-.152-.017l.09-31.651c.051.007.1.013.152.017" transform="translate(-1197.728 -713.808)" fill="#515661"/>
            <path id="Path_345" data-name="Path 345" d="M1198.493,714.038l-.09,31.651c-.052-.007-.1-.016-.154-.026l.09-31.651c.05.01.1.019.155.026" transform="translate(-1197.684 -713.801)" fill="#4e535e"/>
            <path id="Path_346" data-name="Path 346" d="M1198.291,714l-.09,31.651c-.055-.012-.109-.025-.162-.04l.09-31.651c.053.015.107.028.162.04" transform="translate(-1197.637 -713.789)" fill="#4c505b"/>
            <path id="Path_347" data-name="Path 347" d="M1198.075,713.943l-.09,31.651c-.064-.019-.127-.04-.188-.064l.09-31.651c.061.024.124.045.188.064" transform="translate(-1197.583 -713.771)" fill="#494d57"/>
            <path id="Path_348" data-name="Path 348" d="M1197.825,713.85l-.09,31.651a1.706,1.706,0,0,1-.214-.1l.09-31.651a1.664,1.664,0,0,0,.214.1" transform="translate(-1197.521 -713.742)" fill="#464a54"/>
          </g>
        </g>
      </g>
    </g>
  </g>
</svg>
