<svg xmlns="http://www.w3.org/2000/svg" width="32.511" height="26.449" viewBox="0 0 32.511 26.449">
  <path id="iconmonstr-police-4" d="M6.189,11.7c1.884-.256,3.979-2.263,4.785-4.386h10.7v8.452c-3.79,0-2.284,6.007-6.768,6.854a3.587,3.587,0,0,1-4.58-3.19A10.255,10.255,0,0,0,6.189,11.7ZM18.546,8.89H13.723a.577.577,0,0,0,0,1.132h4.824Zm0,2.127H13.723a.576.576,0,0,0,0,1.131h4.824Zm0,3.258V13.143H13.723a.577.577,0,0,0,0,1.132Zm-4.233,7.037c3.812-.463,3.582-5.86-.7-5.053C10.642,16.821,10.841,21.734,14.313,21.312Zm8.716-14v4.953h8.147a2.067,2.067,0,0,1,1.336-1.913V7.313ZM28.447,6.1h3.112V4.4c0-.311-.255-.5-.5-.337ZM8.385,9.521A7.207,7.207,0,0,0,9.336,8.5a4.569,4.569,0,0,0-2.277-.9.327.327,0,0,0-.145.622A3.3,3.3,0,0,1,8.385,9.521Zm4.109,8.75c.442.942,1.185,1.894,1.817,1.957a.291.291,0,0,0,.255-.418,3.827,3.827,0,0,1-.843-2.566A1.561,1.561,0,0,0,12.494,18.271ZM5.328,13.047a8.63,8.63,0,0,1,3.709,6.794c-1.053.534-2.264,1.516-2.264,4.857v4.075c0,1.4-.461,1.676-1.647,1.676H1.749C.408,30.449,0,29.938,0,28.8A20.279,20.279,0,0,1,2.705,18.749C3.765,16.929,5.148,15.69,5.328,13.047Zm.853,6.568a1.079,1.079,0,0,0,.958-1.17,1.079,1.079,0,0,0-.958-1.17,1.08,1.08,0,0,0-.959,1.17A1.081,1.081,0,0,0,6.181,19.615Z" transform="translate(0 -4)" fill="#f04b71"/>
</svg>
