<svg xmlns="http://www.w3.org/2000/svg" width="51.297" height="33.472" viewBox="0 0 51.297 33.472">
  <path id="iconmonstr-police-4" d="M9.766,13.743a10.6,10.6,0,0,0,7.549-5.55H34.2v10.7c-5.98,0-3.6,7.6-10.678,8.673-4.249.642-6.964-1.452-7.226-4.038A12.554,12.554,0,0,0,9.766,13.743Zm19.5-3.554H21.652a.717.717,0,1,0,0,1.433h7.611Zm0,2.692H21.652a.716.716,0,1,0,0,1.431h7.611Zm0,4.123V15.571H21.652a.717.717,0,1,0,0,1.433ZM22.583,25.91c6.015-.586,5.651-7.416-1.107-6.4C16.791,20.226,17.105,26.443,22.583,25.91ZM36.335,8.192V14.46H49.189A2.714,2.714,0,0,1,51.3,12.04V8.192Zm8.549-1.536h4.91V4.5a.508.508,0,0,0-.782-.427ZM13.23,10.987a10.318,10.318,0,0,0,1.5-1.293,8.3,8.3,0,0,0-3.593-1.134c-.515-.038-.746.571-.229.787A5.011,5.011,0,0,1,13.23,10.987ZM19.713,22.06c.7,1.192,1.87,2.4,2.866,2.477a.38.38,0,0,0,.4-.529c-.229-.517-1.663-1.559-1.329-3.247A2.378,2.378,0,0,0,19.713,22.06ZM8.406,15.45a10.627,10.627,0,0,1,5.852,8.6c-1.661.676-3.572,1.918-3.572,6.146v5.157c0,1.772-.727,2.121-2.6,2.121H2.759C.643,37.472,0,36.826,0,35.382A21.822,21.822,0,0,1,4.268,22.665C5.94,20.362,8.122,18.795,8.406,15.45Zm1.347,8.312A1.481,1.481,0,1,0,8.24,22.28,1.494,1.494,0,0,0,9.753,23.761Z" transform="translate(0 -4)" fill="#f04b71"/>
</svg>
